<svg width="144" height="26" viewBox="0 0 144 26" fill="none" xmlns="http://www.w3.org/2000/svg">
<path d="M5.51901 19.1672C4.77571 19.1672 4.10055 19.0496 3.49352 18.8142C2.88649 18.5664 2.35998 18.2133 1.914 17.755C1.48041 17.2966 1.14592 16.7515 0.910544 16.1197C0.687554 15.4879 0.576059 14.788 0.576059 14.0199C0.576059 12.9669 0.780466 12.0563 1.18928 11.2882C1.5981 10.5202 2.18035 9.92553 2.93604 9.50432C3.69173 9.07073 4.58369 8.85394 5.61193 8.85394C6.46672 8.85394 7.22241 9.01498 7.879 9.33708C8.54797 9.65918 9.08067 10.1052 9.47709 10.675C9.87352 11.2449 10.0903 11.9077 10.1275 12.6634H7.4516C7.40204 12.3165 7.28435 12.0254 7.09853 11.79C6.92509 11.5546 6.7021 11.3812 6.42956 11.2697C6.1694 11.1458 5.87208 11.0838 5.5376 11.0838C5.06684 11.0838 4.66422 11.2077 4.32973 11.4555C3.99525 11.6909 3.74748 12.0315 3.58643 12.4775C3.42538 12.9111 3.34486 13.4252 3.34486 14.0199C3.34486 14.6765 3.43157 15.2216 3.60501 15.6551C3.79084 16.0763 4.0448 16.3984 4.3669 16.6214C4.70138 16.832 5.08542 16.9373 5.51901 16.9373C5.91544 16.9373 6.24993 16.8692 6.52247 16.7329C6.8074 16.5967 7.03039 16.4046 7.19144 16.1569C7.36488 15.9091 7.46399 15.6304 7.48876 15.3207H10.1461C10.1089 16.1011 9.88591 16.7825 9.47709 17.3647C9.08067 17.9346 8.54177 18.3806 7.86041 18.7027C7.17905 19.0124 6.39859 19.1672 5.51901 19.1672ZM16.2271 19.1672C15.4714 19.1672 14.79 19.0557 14.183 18.8328C13.5759 18.5974 13.0494 18.2567 12.6035 17.8107C12.1575 17.3647 11.8168 16.8258 11.5814 16.194C11.346 15.5498 11.2284 14.8251 11.2284 14.0199C11.2284 12.9916 11.4266 12.0935 11.823 11.3254C12.2194 10.5449 12.7893 9.93792 13.5326 9.50432C14.2759 9.07073 15.174 8.85394 16.2271 8.85394C16.9704 8.85394 17.6455 8.97163 18.2526 9.207C18.8596 9.44238 19.3799 9.78306 19.8135 10.229C20.2595 10.675 20.6001 11.2139 20.8355 11.8457C21.0833 12.4775 21.2072 13.2022 21.2072 14.0199C21.2072 15.0357 21.009 15.9339 20.6125 16.7143C20.2161 17.4824 19.6462 18.0833 18.9029 18.5169C18.172 18.9504 17.2801 19.1672 16.2271 19.1672ZM16.2085 16.9559C16.6545 16.9559 17.0447 16.8506 17.3792 16.64C17.726 16.417 17.9862 16.0887 18.1596 15.6551C18.3455 15.2216 18.4384 14.6765 18.4384 14.0199C18.4384 13.5243 18.3888 13.0969 18.2897 12.7377C18.1906 12.366 18.0419 12.0563 17.8437 11.8086C17.6455 11.5608 17.4101 11.3812 17.1376 11.2697C16.8651 11.1458 16.5615 11.0838 16.2271 11.0838C15.7811 11.0838 15.3846 11.1891 15.0378 11.3997C14.7033 11.6103 14.4431 11.9324 14.2573 12.366C14.0715 12.7996 13.9786 13.3509 13.9786 14.0199C13.9786 14.5154 14.0281 14.949 14.1272 15.3207C14.2387 15.6799 14.3936 15.9834 14.5918 16.2312C14.79 16.4666 15.0254 16.6462 15.2979 16.7701C15.5705 16.894 15.874 16.9559 16.2085 16.9559ZM26.5106 19.1672C25.916 19.1672 25.3709 19.0619 24.8753 18.8513C24.3922 18.6407 23.971 18.3186 23.6117 17.885C23.2648 17.4515 22.9985 16.9126 22.8127 16.2684C22.6268 15.6242 22.5339 14.8747 22.5339 14.0199C22.5339 12.8678 22.695 11.9139 23.0171 11.1582C23.3516 10.3901 23.8161 9.81403 24.4108 9.42999C25.0178 9.04596 25.7177 8.85394 26.5106 8.85394C27.0309 8.85394 27.4955 8.93446 27.9043 9.09551C28.3255 9.25656 28.6848 9.47955 28.9821 9.76448C29.2918 10.0494 29.521 10.3839 29.6696 10.7679H29.8183V5.45333H32.5499V19H29.9112L29.8183 17.2532H29.6696C29.4466 17.8355 29.0564 18.3001 28.4989 18.6469C27.9415 18.9938 27.2787 19.1672 26.5106 19.1672ZM27.5512 16.9559C28.0591 16.9559 28.4742 16.8382 28.7963 16.6029C29.1307 16.3675 29.3785 16.064 29.5396 15.6923C29.7006 15.3083 29.7811 14.9056 29.7811 14.4844V13.5367C29.7811 13.2146 29.7378 12.9049 29.651 12.6076C29.5643 12.3103 29.4281 12.0501 29.2422 11.8271C29.0564 11.5918 28.821 11.4059 28.5361 11.2697C28.2512 11.1334 27.9229 11.0653 27.5512 11.0653C27.1052 11.0653 26.715 11.1706 26.3805 11.3812C26.046 11.5918 25.7859 11.9139 25.6001 12.3475C25.4142 12.781 25.3213 13.3385 25.3213 14.0199C25.3213 14.6765 25.4142 15.2277 25.6001 15.6737C25.7859 16.1073 26.046 16.4294 26.3805 16.64C26.715 16.8506 27.1052 16.9559 27.5512 16.9559ZM39.2547 19.1672C38.2141 19.1672 37.3222 18.9566 36.5789 18.5354C35.8479 18.1142 35.2843 17.5258 34.8878 16.7701C34.4914 16.002 34.2932 15.1101 34.2932 14.0942C34.2932 13.0164 34.4914 12.0873 34.8878 11.3068C35.2843 10.5264 35.8479 9.92553 36.5789 9.50432C37.3098 9.07073 38.1708 8.85394 39.1618 8.85394C40.3139 8.85394 41.2616 9.1079 42.005 9.61582C42.7483 10.1237 43.281 10.8113 43.603 11.6785C43.9251 12.5457 44.0304 13.5305 43.919 14.6331H36.9877C36.9753 15.1534 37.062 15.5994 37.2478 15.971C37.446 16.3427 37.7186 16.6276 38.0655 16.8258C38.4123 17.0117 38.8088 17.1046 39.2547 17.1046C39.775 17.1046 40.2148 16.9931 40.5741 16.7701C40.9457 16.5347 41.1811 16.225 41.2802 15.841H43.8632C43.7765 16.5099 43.5225 17.0922 43.1013 17.5877C42.6925 18.0833 42.1598 18.4735 41.5032 18.7584C40.8466 19.031 40.0971 19.1672 39.2547 19.1672ZM36.9877 13.1837L36.7461 12.8863H41.4846L41.2431 13.1837C41.2678 12.6634 41.1873 12.2422 41.0015 11.9201C40.8281 11.5856 40.5803 11.3378 40.2582 11.1768C39.9361 11.0033 39.5706 10.9166 39.1618 10.9166C38.7158 10.9166 38.3318 11.0095 38.0097 11.1953C37.6876 11.3812 37.4336 11.6475 37.2478 11.9944C37.0744 12.3289 36.9877 12.7253 36.9877 13.1837ZM51.7428 19.1858C51.2349 19.1858 50.7703 19.1053 50.3491 18.9443C49.9279 18.7832 49.5624 18.5602 49.2527 18.2753C48.9554 17.9903 48.7324 17.6559 48.5837 17.2718H48.4351L48.3236 19H45.7035V5.45333H48.4351V10.7679H48.5837C48.8067 10.1981 49.197 9.7397 49.7544 9.39283C50.3119 9.03357 50.9747 8.85394 51.7428 8.85394C52.3374 8.85394 52.8763 8.96543 53.3595 9.18842C53.855 9.39902 54.2762 9.72112 54.6231 10.1547C54.9823 10.5883 55.2549 11.1272 55.4407 11.7714C55.6265 12.4156 55.7194 13.1651 55.7194 14.0199C55.7194 15.1596 55.5522 16.1135 55.2177 16.8816C54.8956 17.6497 54.4311 18.2257 53.824 18.6098C53.2294 18.9938 52.5356 19.1858 51.7428 19.1858ZM50.7022 16.9745C51.1481 16.9745 51.5384 16.8692 51.8729 16.6586C52.2073 16.4356 52.4675 16.1073 52.6533 15.6737C52.8391 15.2401 52.9321 14.6889 52.9321 14.0199C52.9321 13.512 52.8763 13.0722 52.7648 12.7005C52.6657 12.3289 52.517 12.0254 52.3188 11.79C52.1206 11.5422 51.8852 11.3626 51.6127 11.2511C51.3402 11.1272 51.0366 11.0653 50.7022 11.0653C50.2066 11.0653 49.7916 11.1829 49.4571 11.4183C49.1226 11.6537 48.8687 11.9572 48.6952 12.3289C48.5342 12.7005 48.4537 13.1031 48.4537 13.5367V14.503C48.4537 14.9242 48.5342 15.3207 48.6952 15.6923C48.8687 16.064 49.1226 16.3737 49.4571 16.6214C49.7916 16.8568 50.2066 16.9745 50.7022 16.9745ZM56.7843 22.1033V19.8548H57.9364C58.2214 19.8548 58.4567 19.8176 58.6426 19.7433C58.8408 19.6814 59.0018 19.5699 59.1257 19.4088C59.262 19.2602 59.3735 19.0681 59.4602 18.8328L59.9433 17.5877V18.7956L55.8923 9.03976H58.8841L60.7052 14.3729L61.0211 15.4322H61.114L61.4114 14.3729L63.121 9.03976H66.0384L62.1547 19.4646C61.9069 20.1583 61.6034 20.6972 61.2441 21.0812C60.8849 21.4653 60.4698 21.7316 59.9991 21.8803C59.5407 22.029 59.0266 22.1033 58.4567 22.1033H56.7843ZM71.1666 19.1858C69.7172 19.1858 68.596 18.8823 67.8032 18.2753C67.0227 17.6559 66.6387 16.8506 66.6511 15.8596H69.3269C69.3393 16.3923 69.5252 16.7763 69.8844 17.0117C70.2437 17.2347 70.6959 17.3462 71.2409 17.3462C71.7984 17.3462 72.2196 17.247 72.5046 17.0488C72.7895 16.8506 72.9319 16.5905 72.9319 16.2684C72.9319 15.971 72.8576 15.7481 72.709 15.5994C72.5603 15.4383 72.3373 15.3207 72.04 15.2463C71.7427 15.1596 71.3586 15.0853 70.8879 15.0233C70.3304 14.949 69.8101 14.8561 69.3269 14.7446C68.8562 14.6207 68.435 14.4535 68.0633 14.2429C67.7041 14.0199 67.4191 13.7288 67.2085 13.3695C67.0103 13.0102 66.9112 12.5581 66.9112 12.013C66.9112 11.3068 67.0908 10.7246 67.4501 10.2662C67.8218 9.79545 68.3297 9.44238 68.9739 9.207C69.6305 8.97163 70.3923 8.85394 71.2595 8.85394C72.1143 8.85394 72.8514 8.97782 73.4708 9.22559C74.1026 9.47335 74.592 9.83262 74.9389 10.3034C75.2857 10.7617 75.4654 11.3254 75.4778 11.9944H72.8019C72.8019 11.7095 72.7337 11.4741 72.5975 11.2882C72.4612 11.09 72.2692 10.9414 72.0214 10.8423C71.786 10.7432 71.5073 10.6936 71.1852 10.6936C70.6773 10.6936 70.2932 10.7927 70.0331 10.9909C69.7729 11.1768 69.6428 11.4245 69.6428 11.7342C69.6428 11.982 69.7172 12.1802 69.8658 12.3289C70.0145 12.4775 70.2437 12.5952 70.5534 12.6819C70.8631 12.7563 71.2595 12.8244 71.7427 12.8863C72.2506 12.9483 72.7399 13.035 73.2107 13.1465C73.6938 13.258 74.1212 13.4252 74.4929 13.6482C74.8645 13.8588 75.1557 14.1562 75.3663 14.5402C75.5769 14.9118 75.6822 15.4012 75.6822 16.0082C75.6822 17.1108 75.2795 17.916 74.4743 18.4239C73.6814 18.9319 72.5789 19.1858 71.1666 19.1858ZM81.9737 19.1672C81.218 19.1672 80.5366 19.0557 79.9296 18.8328C79.3225 18.5974 78.796 18.2567 78.3501 17.8107C77.9041 17.3647 77.5634 16.8258 77.328 16.194C77.0926 15.5498 76.975 14.8251 76.975 14.0199C76.975 12.9916 77.1732 12.0935 77.5696 11.3254C77.966 10.5449 78.5359 9.93792 79.2792 9.50432C80.0225 9.07073 80.9206 8.85394 81.9737 8.85394C82.717 8.85394 83.3921 8.97163 83.9992 9.207C84.6062 9.44238 85.1265 9.78306 85.5601 10.229C86.0061 10.675 86.3467 11.2139 86.5821 11.8457C86.8299 12.4775 86.9538 13.2022 86.9538 14.0199C86.9538 15.0357 86.7556 15.9339 86.3591 16.7143C85.9627 17.4824 85.3928 18.0833 84.6495 18.5169C83.9186 18.9504 83.0267 19.1672 81.9737 19.1672ZM81.9551 16.9559C82.4011 16.9559 82.7913 16.8506 83.1258 16.64C83.4726 16.417 83.7328 16.0887 83.9062 15.6551C84.0921 15.2216 84.185 14.6765 84.185 14.0199C84.185 13.5243 84.1354 13.0969 84.0363 12.7377C83.9372 12.366 83.7886 12.0563 83.5903 11.8086C83.3921 11.5608 83.1567 11.3812 82.8842 11.2697C82.6117 11.1458 82.3081 11.0838 81.9737 11.0838C81.5277 11.0838 81.1312 11.1891 80.7844 11.3997C80.4499 11.6103 80.1897 11.9324 80.0039 12.366C79.8181 12.7996 79.7252 13.3509 79.7252 14.0199C79.7252 14.5154 79.7747 14.949 79.8738 15.3207C79.9853 15.6799 80.1402 15.9834 80.3384 16.2312C80.5366 16.4666 80.772 16.6462 81.0445 16.7701C81.3171 16.894 81.6206 16.9559 81.9551 16.9559ZM88.6937 19V9.03976H91.3138L91.4253 10.8423H91.5368C91.8094 10.1733 92.2306 9.67776 92.8005 9.35566C93.3703 9.02118 94.0083 8.85394 94.7145 8.85394C95.21 8.85394 95.6684 8.93446 96.0896 9.09551C96.5232 9.24417 96.8948 9.47955 97.2045 9.80164C97.5266 10.1237 97.7744 10.5511 97.9478 11.0838C98.1336 11.6042 98.2266 12.236 98.2266 12.9793V19H95.4949V13.5739C95.4949 13.0164 95.4268 12.5519 95.2905 12.1802C95.1666 11.8086 94.9684 11.536 94.6959 11.3626C94.4233 11.1768 94.0641 11.0838 93.6181 11.0838C93.1473 11.0838 92.7509 11.1953 92.4288 11.4183C92.1067 11.6413 91.8589 11.9324 91.6855 12.2917C91.5121 12.651 91.4253 13.0412 91.4253 13.4624V19H88.6937ZM100.471 19V9.03976H103.203V19H100.471ZM100.471 7.75757V5.45333H103.203V7.75757H100.471ZM108.934 19.1672C108.34 19.1672 107.795 19.0619 107.299 18.8513C106.816 18.6407 106.395 18.3186 106.035 17.885C105.689 17.4515 105.422 16.9126 105.236 16.2684C105.051 15.6242 104.958 14.8747 104.958 14.0199C104.958 12.8678 105.119 11.9139 105.441 11.1582C105.775 10.3901 106.24 9.81403 106.834 9.42999C107.442 9.04596 108.141 8.85394 108.934 8.85394C109.455 8.85394 109.919 8.93446 110.328 9.09551C110.749 9.25656 111.108 9.47955 111.406 9.76448C111.715 10.0494 111.945 10.3839 112.093 10.7679H112.242L112.353 9.03976H114.974V19H112.242V17.2532H112.093C111.87 17.8355 111.48 18.3001 110.923 18.6469C110.365 18.9938 109.702 19.1672 108.934 19.1672ZM109.975 16.9559C110.483 16.9559 110.898 16.8382 111.22 16.6029C111.554 16.3675 111.802 16.064 111.963 15.6923C112.124 15.3083 112.205 14.9056 112.205 14.4844V13.5367C112.205 13.1031 112.124 12.7005 111.963 12.3289C111.802 11.9572 111.554 11.6537 111.22 11.4183C110.898 11.1829 110.483 11.0653 109.975 11.0653C109.529 11.0653 109.139 11.1706 108.804 11.3812C108.47 11.5918 108.21 11.9139 108.024 12.3475C107.838 12.781 107.745 13.3385 107.745 14.0199C107.745 14.6765 107.838 15.2277 108.024 15.6737C108.21 16.1073 108.47 16.4294 108.804 16.64C109.139 16.8506 109.529 16.9559 109.975 16.9559Z" fill="white"/>
<path d="M130.836 1.82275L124.623 5.61032C123.627 6.21743 123.635 7.6658 124.637 8.2628L130.849 11.9647C131.881 12.5797 133.19 11.836 133.19 10.6344L133.19 3.14494C133.19 1.93637 131.868 1.19363 130.836 1.82275Z" fill="url(#paint0_linear_4252_2430)"/>
<path d="M135.594 13.6807L141.806 17.4682C142.802 18.0753 142.795 19.5237 141.793 20.1207L135.581 23.8226C134.548 24.4377 133.239 23.6939 133.239 22.4923L133.239 15.0029C133.239 13.7943 134.562 13.0515 135.594 13.6807Z" fill="url(#paint1_linear_4252_2430)"/>
<path d="M126.978 9.83363L130.454 7.49573V5.09473L123.634 9.63688L130.454 14.0763L130.454 16.4701L123.131 11.6868" stroke="white" stroke-width="0.774272" stroke-linecap="round"/>
<path d="M138.929 15.9291L135.454 18.267V20.668L142.273 16.1258L135.454 11.6864L135.454 9.29258L142.776 14.0758" stroke="white" stroke-width="0.774272" stroke-linecap="round"/>
<defs>
<linearGradient id="paint0_linear_4252_2430" x1="130.125" y1="6.29645" x2="131.524" y2="12.243" gradientUnits="userSpaceOnUse">
<stop stop-color="#7EE787"/>
<stop offset="1" stop-color="#CBF5CF"/>
</linearGradient>
<linearGradient id="paint1_linear_4252_2430" x1="136.304" y1="18.1544" x2="134.905" y2="24.1009" gradientUnits="userSpaceOnUse">
<stop stop-color="#FFCAC7"/>
<stop offset="1" stop-color="#FF7B72"/>
</linearGradient>
</defs>
</svg>
