<svg width="29" height="46" viewBox="0 0 29 46" fill="none" xmlns="http://www.w3.org/2000/svg">
<path d="M28.3227 1.70749C28.5832 1.2205 28.3996 0.614542 27.9126 0.354055C27.4256 0.0935689 26.8196 0.277191 26.5591 0.764188L28.3227 1.70749ZM3.48389 44.5258C3.64406 45.0544 4.20238 45.353 4.73093 45.1929L13.3441 42.5828C13.8727 42.4226 14.1713 41.8643 14.0112 41.3358C13.851 40.8072 13.2927 40.5086 12.7641 40.6687L5.10794 42.9888L2.78788 35.3326C2.62771 34.8041 2.0694 34.5054 1.54085 34.6656C1.01229 34.8258 0.713662 35.3841 0.873828 35.9126L3.48389 44.5258ZM26.5591 0.764188L3.55913 43.7642L5.3227 44.7075L28.3227 1.70749L26.5591 0.764188Z" fill="#7EE787"/>
</svg>
